<?xml version="1.0" standalone="no"?>
<!DOCTYPE svg PUBLIC "-//W3C//DTD SVG 20010904//EN"
 "http://www.w3.org/TR/2001/REC-SVG-20010904/DTD/svg10.dtd">
<svg version="1.0" xmlns="http://www.w3.org/2000/svg"
 width="1624.000000pt" height="788.000000pt" viewBox="0 0 1624.000000 788.000000"
 preserveAspectRatio="xMidYMid meet">

<g transform="translate(0.000000,788.000000) scale(0.100000,-0.100000)"
fill="#000000" stroke="none">
<path d="M8245 7838 c-70 -25 -155 -109 -201 -200 -13 -26 -44 -100 -69 -163
-81 -211 -200 -430 -277 -512 -55 -57 -152 -97 -292 -120 l-39 -6 7 49 c4 27
9 60 11 74 13 64 8 176 -7 205 -50 93 -149 120 -257 70 -110 -52 -253 -168
-519 -424 -225 -217 -237 -234 -272 -384 -11 -48 -27 -98 -36 -111 -38 -60
-223 -128 -450 -166 -113 -19 -150 -21 -294 -16 -134 6 -174 4 -215 -8 -78
-24 -158 -19 -372 23 -267 53 -325 61 -558 72 -451 21 -636 22 -827 5 -330
-31 -451 -46 -598 -76 -321 -65 -420 -94 -572 -171 -71 -36 -414 -230 -473
-268 -81 -52 -223 -161 -229 -177 -24 -61 18 -57 102 10 104 83 215 152 357
221 153 75 234 99 389 116 257 28 650 -44 769 -142 20 -17 37 -38 37 -47 0
-30 58 -119 101 -156 23 -19 99 -65 168 -101 69 -36 164 -92 210 -125 102 -73
252 -158 343 -194 125 -49 321 -76 552 -76 213 1 320 25 360 82 21 29 20 91
-1 131 -24 48 -128 152 -218 220 -89 66 -155 127 -154 142 0 6 22 39 49 75 82
106 88 158 27 226 -68 79 -237 131 -391 121 -123 -8 -214 -34 -413 -118 -341
-143 -337 -142 -443 -142 -75 1 -125 9 -237 37 -205 51 -361 108 -379 137 -15
25 88 88 167 103 19 3 147 17 285 30 174 17 287 34 374 55 73 17 169 33 230
36 107 7 428 -7 580 -25 316 -38 875 -167 1031 -238 36 -16 148 -75 250 -132
223 -125 281 -151 426 -195 203 -62 354 -79 703 -79 279 -1 317 1 450 24 126
21 176 24 375 24 199 0 244 -3 335 -23 226 -48 444 -138 588 -244 48 -35 150
-105 226 -157 98 -65 178 -129 267 -214 135 -128 189 -167 318 -222 148 -65
234 -55 267 31 34 90 -18 217 -145 350 -107 113 -161 176 -161 187 0 5 10 13
23 19 29 15 166 175 195 230 43 82 24 172 -44 204 -55 26 -136 15 -284 -40
-150 -55 -275 -81 -430 -91 -75 -4 -145 -16 -200 -32 -120 -35 -225 -39 -331
-12 -215 54 -409 129 -409 158 0 6 4 12 9 12 4 0 23 16 42 36 19 19 52 48 74
63 64 45 416 238 502 275 43 18 132 61 198 94 184 93 316 119 555 109 267 -12
535 -106 906 -320 71 -41 194 -107 274 -147 216 -107 340 -196 416 -296 34
-44 61 -134 75 -247 17 -145 43 -251 99 -402 28 -77 71 -221 96 -320 54 -224
85 -316 129 -382 77 -117 201 -161 355 -129 186 39 293 138 366 337 18 52 34
102 34 111 0 17 33 42 42 32 3 -2 33 -9 67 -15 34 -5 135 -32 224 -60 384
-118 471 -126 550 -51 43 40 66 93 78 178 17 124 -5 224 -70 311 -35 49 -179
171 -284 241 -131 89 -192 115 -460 198 -48 14 -98 35 -111 45 -12 10 -35 21
-50 25 -38 9 -43 30 -14 62 45 49 158 209 178 253 25 56 25 119 0 169 -39 76
-120 110 -264 110 -122 -1 -233 -27 -401 -94 -77 -31 -194 -70 -260 -87 -66
-17 -171 -50 -233 -75 -63 -24 -122 -44 -131 -44 -20 0 -480 229 -836 415
-250 131 -381 185 -542 226 -170 43 -304 55 -470 41 -231 -20 -359 -67 -531
-196 -253 -191 -685 -432 -902 -503 -275 -91 -671 -125 -1035 -88 -340 33
-456 64 -687 180 -191 96 -277 146 -327 192 -22 21 -48 43 -57 49 -26 16 -11
44 24 44 15 0 32 4 38 10 5 5 90 27 189 50 199 44 290 72 439 133 91 37 109
41 181 41 94 -1 257 -41 465 -114 256 -90 465 -116 581 -71 68 26 142 88 170
143 12 23 23 65 26 94 5 45 1 62 -22 109 -14 30 -42 68 -61 83 -54 43 -210
130 -255 142 -51 14 -49 36 6 58 22 9 42 19 45 23 10 14 152 76 214 94 65 19
90 18 356 -9 137 -15 172 -22 300 -67 241 -83 326 -78 440 28 42 38 71 77 95
127 47 96 53 148 23 206 -31 60 -92 100 -220 140 -56 19 -110 37 -118 42 -8 4
-28 12 -43 18 -24 8 -27 14 -21 33 10 30 13 65 14 187 2 127 -20 200 -77 250
-57 50 -103 61 -168 38z"/>
<path d="M2380 4531 c-195 -63 -255 -142 -328 -426 -49 -194 -53 -195 -140
-30 -111 211 -235 346 -388 422 -96 47 -173 54 -264 23 -79 -27 -128 -61 -191
-136 -65 -77 -101 -149 -140 -284 l-34 -115 1 -235 c0 -233 0 -237 38 -415 20
-99 73 -321 117 -494 76 -300 79 -318 79 -427 0 -296 -92 -451 -304 -516 -130
-39 -324 -8 -445 73 -153 102 -212 234 -189 419 16 127 61 201 152 247 38 19
67 26 111 27 76 0 108 -16 199 -105 39 -38 74 -69 79 -69 15 0 20 32 9 68 -25
81 -150 184 -238 198 -126 19 -301 -64 -354 -166 -26 -51 -50 -181 -50 -269 1
-265 119 -418 390 -507 252 -81 545 14 640 210 41 83 61 171 69 296 9 141 -3
261 -39 400 -189 709 -240 1032 -196 1250 45 220 166 415 283 454 106 35 184
21 295 -54 113 -75 176 -143 246 -261 86 -145 132 -263 188 -480 85 -333 110
-536 100 -809 -5 -122 -3 -193 9 -275 8 -60 15 -150 15 -200 0 -79 34 -363 45
-373 2 -3 16 -1 30 2 51 13 55 42 55 416 0 491 -26 732 -118 1085 -57 223 -61
316 -18 515 42 193 75 281 135 358 36 46 132 97 223 118 74 17 81 17 160 0 89
-19 169 -55 261 -118 42 -29 80 -69 134 -141 127 -173 186 -313 238 -571 19
-94 41 -191 50 -216 45 -127 35 -893 -15 -1125 -12 -54 -32 -537 -24 -559 12
-31 39 -12 62 46 24 61 35 164 52 463 5 94 14 208 19 255 33 284 37 643 10
835 -11 84 -89 442 -115 534 -47 164 -172 388 -271 483 -93 90 -230 153 -401
183 -102 19 -166 18 -232 -4z"/>
<path d="M7339 4524 c-51 -15 -104 -64 -169 -154 -156 -217 -169 -281 -123
-627 8 -67 13 -129 10 -137 -14 -35 -232 -15 -427 39 -96 26 -170 16 -132 -18
27 -25 284 -84 418 -97 154 -14 179 -22 195 -63 26 -67 132 -305 169 -382 21
-44 53 -134 71 -200 29 -110 32 -134 35 -300 5 -324 -27 -461 -98 -415 -94 59
-142 82 -240 115 -155 51 -214 48 -350 -19 -165 -80 -221 -157 -221 -301 0
-107 26 -169 101 -235 97 -87 216 -126 359 -117 149 9 230 62 355 234 39 53
67 83 79 83 11 0 38 -25 67 -62 71 -92 190 -229 231 -264 136 -118 356 -182
493 -144 67 19 220 130 347 252 116 111 126 119 159 116 31 -3 43 -12 89 -73
90 -119 172 -173 272 -182 55 -5 77 -1 191 31 138 39 279 137 350 244 28 43
66 150 86 247 5 22 14 40 19 39 6 0 31 -42 56 -92 55 -107 102 -173 164 -231
58 -54 112 -78 209 -93 120 -18 235 10 366 91 25 16 68 37 97 47 l52 18 58
-55 c32 -30 79 -65 105 -78 43 -20 60 -22 166 -19 109 3 122 5 184 36 36 18
80 48 96 67 37 41 102 152 128 218 26 66 49 61 89 -18 42 -83 87 -147 154
-214 65 -67 126 -98 215 -114 154 -26 244 36 349 241 32 61 61 112 64 112 3 0
29 -11 57 -25 79 -38 146 -47 226 -31 128 27 211 88 259 192 34 72 49 61 108
-80 65 -155 196 -544 220 -656 25 -116 24 -369 0 -495 -32 -158 -79 -307 -134
-418 -86 -174 -145 -243 -264 -304 -50 -26 -63 -28 -164 -28 -88 1 -124 6
-178 24 -152 51 -348 226 -421 376 -40 80 -55 157 -42 209 11 43 58 88 130
122 88 43 156 45 231 10 66 -31 91 -60 105 -121 17 -73 32 -100 60 -103 49 -8
62 47 35 153 -61 243 -512 249 -622 8 -23 -49 -25 -65 -21 -148 3 -84 8 -101
41 -167 73 -143 233 -315 357 -382 105 -57 322 -90 441 -67 89 18 154 54 224
125 136 137 228 360 294 712 32 172 36 253 17 404 -20 156 -47 267 -112 452
-55 158 -166 449 -204 533 -70 156 -122 289 -150 380 -47 154 -79 192 -132
152 -35 -27 -31 -58 20 -162 82 -167 104 -237 106 -340 2 -151 -35 -224 -137
-270 -123 -56 -177 -48 -263 40 -51 52 -65 74 -84 131 -12 38 -31 85 -43 104
-37 60 -89 226 -181 575 -14 54 -48 84 -80 72 -32 -13 -14 -106 73 -392 45
-148 95 -309 112 -356 42 -123 37 -189 -19 -309 -25 -51 -93 -137 -134 -170
-41 -32 -128 -30 -190 5 -43 24 -130 105 -176 165 -59 76 -117 215 -148 350
-38 167 -76 362 -90 464 -16 114 -62 306 -133 551 -64 222 -112 413 -128 504
-18 105 -26 121 -63 121 -24 0 -31 -5 -36 -26 -9 -37 3 -162 25 -269 11 -49
28 -130 39 -180 11 -49 38 -148 60 -220 102 -329 140 -495 114 -495 -5 0 -44
18 -88 41 -76 40 -82 41 -155 37 -63 -4 -89 -11 -162 -46 -97 -48 -149 -100
-224 -224 -57 -96 -73 -150 -80 -283 -4 -92 -2 -125 16 -198 11 -49 21 -94 21
-101 0 -13 -80 -72 -202 -149 -158 -100 -292 -86 -420 44 -69 69 -82 93 -228
404 -34 72 -66 173 -75 235 -4 25 -20 90 -36 145 -17 55 -39 133 -49 173 -22
82 -43 117 -98 160 -114 89 -335 96 -484 15 -59 -32 -155 -150 -204 -249 -39
-82 -88 -260 -104 -384 -8 -54 -9 -125 -4 -195 10 -147 7 -232 -11 -259 -8
-12 -50 -42 -92 -67 -47 -26 -116 -80 -173 -134 -64 -61 -120 -104 -170 -130
-68 -36 -82 -40 -150 -40 -148 0 -258 60 -393 213 -84 95 -216 263 -238 305
-6 11 -6 40 0 80 5 34 17 114 26 177 15 101 16 135 6 273 -20 269 -37 334
-167 639 -80 187 -94 231 -76 241 4 3 50 8 102 12 178 14 279 53 360 142 89
98 124 195 123 343 -1 97 -23 173 -81 285 -48 90 -160 210 -227 241 -57 27
-90 29 -156 8z m211 -151 c127 -130 185 -259 185 -413 0 -86 -3 -101 -31 -160
-73 -153 -215 -230 -424 -230 -63 0 -102 4 -114 13 -23 17 -61 197 -71 335
-13 185 26 300 151 441 66 75 97 91 169 91 l59 0 76 -77z m1778 -1400 c74 -26
177 -184 201 -307 25 -132 42 -263 50 -398 8 -129 7 -157 -9 -218 -44 -171
-179 -305 -373 -371 -49 -17 -77 -20 -138 -16 -91 6 -123 21 -181 85 -103 115
-148 265 -148 494 0 120 6 162 50 368 18 84 68 167 147 248 126 127 259 166
401 115z m1797 -252 c77 -45 111 -86 130 -160 9 -36 27 -86 41 -112 20 -41 24
-63 24 -141 0 -169 -71 -337 -182 -430 -61 -52 -96 -66 -189 -74 -57 -6 -73
-3 -112 16 -57 29 -112 101 -175 230 l-47 95 0 130 c0 124 2 133 30 190 101
206 199 283 360 284 60 1 77 -3 120 -28z m-4107 -525 c62 -17 237 -118 252
-146 16 -30 12 -53 -20 -117 -37 -74 -139 -181 -201 -211 -71 -34 -194 -31
-288 7 -117 47 -168 97 -192 185 -17 64 -4 119 46 179 50 62 78 82 149 109 58
21 160 19 254 -6z"/>
<path d="M4710 4395 c-52 -14 -118 -37 -146 -49 -40 -19 -268 -164 -329 -210
-9 -6 -38 7 -91 43 -148 98 -252 137 -395 148 -99 7 -129 0 -129 -31 0 -31 34
-42 145 -49 115 -7 184 -38 415 -183 82 -51 147 -120 165 -174 9 -26 38 -82
66 -126 295 -464 382 -1142 203 -1585 -70 -173 -190 -292 -322 -320 -141 -29
-375 72 -472 204 -40 54 -40 95 1 141 38 44 79 53 139 31 92 -34 90 -35 90 29
0 56 0 57 -37 73 -94 39 -173 22 -241 -51 -70 -75 -79 -158 -31 -255 76 -152
263 -241 508 -241 112 0 128 5 223 62 l68 40 47 -27 c27 -16 69 -43 94 -61 75
-54 306 -169 418 -208 196 -68 358 -82 543 -46 126 24 218 68 313 147 111 94
188 227 221 382 26 125 10 428 -30 537 -46 131 -157 246 -316 330 -37 19 -70
44 -73 54 -2 10 15 51 40 94 103 179 147 395 109 546 -40 162 -111 299 -229
446 -73 90 -107 116 -267 202 -156 83 -289 119 -482 127 -111 5 -132 3 -218
-20z m420 -69 c105 -27 216 -76 295 -129 44 -30 138 -116 155 -143 8 -12 36
-53 61 -91 58 -85 120 -205 156 -303 24 -67 27 -89 27 -200 1 -107 -2 -133
-21 -180 -32 -78 -92 -167 -147 -218 l-47 -44 -262 3 c-271 3 -372 -3 -420
-22 -29 -12 -43 -45 -33 -82 23 -94 459 -130 627 -52 33 15 72 25 100 25 69 0
180 -42 248 -95 151 -115 207 -245 218 -495 7 -177 -3 -229 -73 -368 -46 -93
-67 -122 -114 -163 -113 -100 -236 -149 -374 -149 -120 0 -286 27 -375 60
-201 76 -248 102 -366 200 -33 27 -79 62 -102 77 -23 15 -45 35 -48 44 -3 9
13 63 35 120 82 211 125 550 100 789 -27 260 -63 400 -165 646 -79 189 -102
234 -158 311 -104 140 -116 177 -78 240 58 93 287 214 446 234 81 10 247 2
315 -15z"/>
<path d="M14545 3671 c-152 -37 -264 -163 -295 -331 -17 -91 -38 -162 -53
-181 -6 -8 -39 -37 -72 -64 -70 -56 -83 -73 -60 -81 9 -4 36 11 73 41 31 26
77 58 103 70 25 13 51 30 58 39 16 19 17 63 1 111 -16 47 -8 161 15 204 22 43
75 94 121 116 48 24 195 33 229 15 28 -15 60 -73 69 -123 10 -53 -10 -170 -45
-274 -40 -119 -38 -143 16 -227 38 -59 45 -77 45 -120 0 -75 -14 -112 -60
-163 -23 -24 -51 -65 -62 -89 -30 -70 -18 -100 70 -177 26 -22 32 -35 32 -67
0 -36 -4 -42 -47 -71 -138 -92 -170 -163 -123 -267 33 -72 59 -101 120 -132
64 -32 70 -42 70 -105 0 -35 -5 -48 -26 -64 -14 -11 -35 -23 -47 -27 -45 -14
-107 -66 -134 -112 -23 -38 -28 -59 -28 -112 0 -55 6 -75 34 -128 43 -79 108
-144 178 -178 65 -32 127 -30 214 9 156 69 202 189 129 345 -40 88 -86 131
-165 156 -82 26 -95 42 -95 122 0 72 2 75 102 156 58 47 93 115 84 164 -9 43
-55 97 -121 140 -82 54 -85 58 -85 99 0 33 7 45 48 84 105 100 107 134 11 255
-37 46 -39 52 -39 122 0 82 4 89 80 134 24 14 56 45 72 69 49 78 33 154 -39
182 -54 20 -133 -50 -119 -107 4 -14 23 -42 42 -64 37 -41 35 -48 -11 -51 -47
-4 -76 2 -95 21 -30 30 -28 159 5 265 50 158 40 250 -33 336 -52 61 -97 77
-167 60z"/>
<path d="M15513 3641 c-138 -66 -204 -164 -238 -354 -20 -109 -36 -136 -115
-197 -39 -29 -70 -59 -70 -66 0 -26 35 -14 90 32 30 25 75 55 100 67 62 30 78
62 62 122 -18 68 -15 173 7 220 41 92 125 144 241 152 96 7 129 -8 160 -73 33
-68 25 -181 -24 -333 -24 -75 -35 -124 -31 -140 3 -14 24 -54 47 -88 40 -62
40 -63 37 -146 l-4 -84 -49 -54 c-55 -60 -76 -103 -76 -151 0 -26 11 -42 54
-84 86 -83 86 -122 1 -179 -66 -44 -123 -108 -131 -149 -6 -37 18 -114 53
-167 15 -23 47 -49 84 -69 69 -37 84 -61 75 -122 -6 -42 -10 -46 -63 -72 -85
-41 -120 -73 -149 -132 -48 -98 -22 -209 73 -314 86 -96 172 -130 263 -104
209 60 281 194 197 369 -40 83 -86 127 -159 150 -95 31 -98 34 -98 125 l0 79
61 47 c152 116 158 229 19 321 -89 58 -100 71 -100 118 0 37 6 46 60 98 56 52
60 59 60 101 0 34 -8 54 -35 92 -82 113 -82 113 -69 208 6 44 10 48 66 83 119
72 152 182 74 245 -54 44 -145 -5 -146 -79 0 -24 10 -44 37 -74 30 -33 34 -42
22 -50 -19 -12 -73 -11 -102 2 -56 26 -63 126 -17 274 49 159 37 269 -38 348
-62 66 -131 74 -229 28z"/>
</g>
</svg>
