<?xml version="1.0" standalone="no"?>
<!DOCTYPE svg PUBLIC "-//W3C//DTD SVG 20010904//EN"
 "http://www.w3.org/TR/2001/REC-SVG-20010904/DTD/svg10.dtd">
<svg version="1.0" xmlns="http://www.w3.org/2000/svg"
 width="1332.000000pt" height="479.000000pt" viewBox="0 0 1332.000000 479.000000"
 preserveAspectRatio="xMidYMid meet">

<g transform="translate(0.000000,479.000000) scale(0.100000,-0.100000)"
fill="#000000" stroke="none">
<path d="M2307 4526 c-120 -44 -173 -89 -223 -188 -26 -51 -84 -262 -84 -305
0 -45 -16 -29 -63 61 -97 185 -227 320 -386 399 l-84 42 -121 0 c-103 0 -128
-3 -169 -22 -61 -28 -150 -112 -199 -187 -48 -74 -95 -218 -108 -333 -13 -113
-13 -402 0 -518 12 -102 65 -368 80 -395 6 -10 10 -29 10 -42 0 -20 41 -185
86 -348 50 -182 66 -344 40 -418 -8 -22 -18 -62 -22 -89 -11 -81 -91 -213
-128 -213 -6 0 -44 -17 -85 -37 -73 -37 -76 -38 -190 -38 -112 0 -118 1 -186
35 -82 41 -180 133 -213 201 -44 91 -46 268 -3 364 36 81 114 145 176 145 55
0 195 -84 195 -116 0 -17 57 -54 83 -54 11 0 17 8 17 21 0 19 1 19 16 5 35
-35 53 -6 35 56 -17 54 -99 136 -176 174 -56 27 -68 29 -170 28 -173 -1 -266
-48 -322 -162 -27 -56 -28 -61 -31 -261 -3 -191 -2 -207 19 -264 27 -73 114
-170 188 -210 28 -16 90 -42 138 -59 84 -29 95 -31 238 -31 164 1 209 12 346
84 142 76 213 218 228 459 9 141 -3 261 -39 400 -189 709 -240 1032 -196 1250
40 194 153 395 245 433 69 29 94 28 167 -7 38 -18 81 -36 95 -39 14 -4 30 -17
36 -29 6 -13 23 -30 39 -38 36 -17 94 -70 94 -84 0 -6 27 -56 60 -111 74 -121
149 -272 162 -323 5 -20 20 -91 34 -156 14 -66 30 -129 36 -140 6 -11 17 -57
25 -101 37 -209 46 -316 53 -620 13 -497 31 -726 63 -776 13 -22 35 -24 90 -8
65 18 67 30 67 419 0 491 -26 732 -118 1085 -57 223 -61 316 -18 515 57 266
106 360 221 425 111 62 213 57 355 -17 165 -87 208 -114 216 -143 4 -11 35
-61 70 -112 106 -152 204 -378 204 -468 0 -38 28 -168 55 -260 57 -193 57
-586 0 -1040 -8 -60 -20 -221 -26 -357 -11 -207 -11 -251 1 -273 14 -26 44
-33 56 -14 5 8 9 7 14 -1 15 -24 38 -2 59 55 23 61 35 171 51 460 5 94 14 208
19 255 33 284 37 643 10 835 -11 84 -89 442 -115 534 -29 100 -97 246 -159
342 -82 124 -160 196 -278 254 -129 63 -224 86 -382 91 -120 4 -135 3 -198
-20z"/>
<path d="M7289 4525 c-56 -18 -131 -95 -209 -212 -79 -120 -84 -147 -76 -407
3 -122 9 -242 12 -268 l6 -48 -50 0 c-58 0 -183 22 -294 51 -51 13 -101 19
-145 17 -66 -3 -68 -4 -71 -31 -3 -24 2 -30 40 -46 54 -24 212 -57 343 -71 55
-6 125 -18 156 -27 l57 -15 36 -77 c20 -42 36 -82 36 -89 0 -6 16 -44 35 -84
152 -320 179 -407 190 -613 7 -120 -14 -361 -36 -407 -12 -27 -12 -27 -38 -9
-46 32 -123 67 -225 100 -92 31 -105 33 -210 29 -102 -4 -117 -7 -188 -40 -90
-42 -158 -102 -190 -166 -20 -41 -23 -62 -23 -162 0 -99 3 -121 23 -162 29
-59 98 -122 170 -156 54 -25 67 -27 230 -30 l174 -3 73 34 c79 38 128 82 202
184 26 34 52 63 58 63 7 0 17 -12 24 -27 21 -47 62 -102 82 -108 10 -3 21 -15
25 -27 3 -11 40 -55 80 -98 73 -74 129 -111 257 -164 59 -25 327 -22 383 3 77
35 218 138 289 211 69 71 140 130 156 130 5 0 20 -23 35 -52 32 -63 107 -138
171 -169 62 -31 218 -39 291 -16 26 9 67 21 92 27 73 19 199 90 260 146 77 72
110 122 142 218 26 77 27 79 37 52 6 -15 11 -30 11 -33 0 -18 86 -135 130
-176 77 -73 136 -96 261 -103 153 -9 213 4 355 77 l121 61 29 -18 c16 -11 38
-30 48 -43 11 -13 42 -34 70 -47 46 -21 65 -24 187 -24 152 0 203 11 289 62
62 38 111 98 162 200 32 62 37 68 43 47 31 -100 169 -263 258 -304 46 -22 65
-25 180 -25 109 0 134 3 172 21 61 29 121 98 175 203 42 81 47 86 70 80 14 -3
82 -8 151 -11 125 -4 128 -4 204 28 82 34 134 72 162 120 18 29 33 38 33 18 0
-6 20 -53 45 -105 25 -51 45 -101 45 -110 0 -9 15 -53 34 -98 50 -121 56 -138
70 -202 7 -33 27 -108 44 -169 16 -60 33 -146 37 -190 7 -88 -14 -291 -41
-391 -9 -32 -20 -74 -25 -91 -5 -18 -13 -48 -18 -65 -7 -29 -38 -94 -155 -318
-36 -69 -63 -90 -201 -160 -52 -26 -70 -30 -144 -30 -97 0 -164 24 -266 96
-194 135 -334 367 -301 498 16 66 121 136 204 136 27 0 63 -10 101 -29 48 -25
61 -37 75 -71 9 -22 16 -52 16 -66 0 -14 11 -36 25 -50 23 -23 31 -25 78 -19
80 10 92 41 62 160 -20 79 -77 133 -184 172 -67 25 -89 28 -186 27 -165 -2
-256 -45 -316 -148 -28 -49 -29 -56 -29 -176 0 -108 4 -133 24 -182 33 -80
106 -180 200 -273 135 -134 256 -183 471 -192 79 -3 154 -1 190 6 234 44 397
251 495 627 37 143 68 308 76 409 8 98 -17 310 -51 442 -39 150 -197 585 -275
758 -70 156 -122 289 -150 380 -16 55 -39 115 -50 133 -19 31 -22 32 -89 32
-66 0 -69 -1 -80 -29 -19 -44 -5 -93 66 -244 60 -127 66 -146 70 -221 6 -90
-3 -133 -45 -202 -21 -34 -38 -47 -97 -72 -100 -43 -130 -37 -195 36 -35 40
-55 74 -70 121 -12 36 -31 82 -43 101 -38 61 -108 281 -168 530 -25 104 -41
120 -115 120 -30 0 -56 -5 -60 -12 -16 -25 -5 -137 20 -195 13 -32 29 -83 36
-113 7 -30 17 -66 22 -80 10 -25 15 -40 62 -210 44 -157 59 -202 74 -217 13
-12 12 -23 -1 -79 -22 -89 -71 -181 -141 -264 -66 -79 -87 -85 -155 -51 -35
18 -124 103 -169 161 -59 76 -117 215 -148 350 -38 167 -76 362 -90 464 -16
114 -62 306 -133 551 -64 222 -112 413 -128 504 -20 118 -22 121 -93 121 -69
0 -66 5 -74 -124 -5 -78 1 -123 29 -237 8 -30 19 -86 25 -125 6 -38 29 -122
50 -188 22 -65 40 -124 40 -132 0 -8 16 -63 36 -123 22 -69 34 -124 32 -148
-3 -37 -4 -38 -38 -35 -19 2 -85 5 -146 8 -109 6 -113 5 -190 -27 -62 -26 -92
-46 -139 -93 -67 -68 -119 -150 -149 -235 -24 -70 -35 -339 -16 -411 25 -94
24 -107 -3 -114 -13 -3 -65 -33 -115 -65 -120 -79 -136 -87 -209 -101 -57 -11
-65 -11 -107 10 -25 12 -71 49 -102 83 -54 60 -83 113 -214 392 -34 72 -66
173 -75 235 -4 25 -20 90 -36 145 -17 55 -39 133 -49 173 -30 113 -81 168
-195 212 -53 20 -78 23 -210 23 -203 1 -234 -10 -335 -112 -91 -92 -146 -196
-184 -346 -41 -163 -50 -252 -43 -440 7 -203 2 -235 -38 -254 -74 -34 -178
-106 -217 -151 -54 -61 -117 -109 -210 -160 -103 -56 -156 -56 -269 2 -70 37
-94 57 -171 143 -81 90 -197 237 -242 307 -14 22 -16 36 -8 90 6 34 18 115 27
178 15 101 16 135 6 273 -20 269 -36 333 -168 640 -46 109 -83 206 -81 215 2
13 20 19 83 25 197 19 298 59 385 153 89 99 124 196 123 344 -1 97 -23 173
-81 285 -50 94 -165 215 -235 245 -66 29 -174 36 -238 15z m164 -116 c35 -19
101 -90 124 -134 11 -22 44 -83 72 -135 48 -90 50 -99 51 -171 0 -67 -4 -83
-39 -156 -45 -93 -102 -146 -211 -196 -52 -24 -82 -30 -161 -34 -112 -7 -97
-22 -128 132 -27 140 -36 278 -21 363 14 87 74 193 157 281 52 54 63 61 96 61
21 0 48 -5 60 -11z m1863 -1465 c34 -17 46 -33 101 -142 42 -83 67 -148 78
-200 9 -42 20 -93 25 -112 5 -19 14 -110 20 -201 13 -192 10 -211 -62 -355
-29 -58 -51 -89 -66 -95 -13 -5 -26 -17 -29 -27 -7 -25 -206 -120 -279 -134
-91 -17 -124 -6 -181 56 -107 117 -153 266 -153 498 0 120 6 162 50 368 18 84
68 167 147 247 93 95 153 124 244 119 38 -2 83 -11 105 -22z m1772 -248 c37
-19 75 -43 85 -53 18 -21 57 -121 57 -148 0 -9 12 -39 26 -68 42 -82 43 -154
5 -268 -18 -52 -48 -119 -67 -151 -19 -31 -34 -61 -34 -66 0 -11 -52 -51 -129
-98 -50 -31 -127 -42 -170 -25 -39 17 -103 105 -159 221 l-47 95 0 130 c0 124
2 133 30 190 75 153 120 205 216 250 72 33 107 31 187 -9z m-4157 -516 c65
-11 296 -127 305 -152 6 -20 -34 -105 -75 -157 -16 -20 -31 -45 -35 -56 -3
-12 -21 -28 -39 -37 -17 -9 -59 -30 -92 -48 -55 -29 -65 -31 -120 -25 -106 11
-207 71 -244 144 -47 92 -39 159 29 240 76 92 143 114 271 91z"/>
<path d="M4705 4410 c-178 -47 -292 -100 -357 -163 -21 -21 -130 -77 -149 -77
-10 0 -35 12 -56 26 -66 45 -196 102 -258 114 -33 6 -112 10 -175 8 l-115 -3
2 -33 c0 -18 3 -36 6 -38 3 -3 42 -9 88 -14 46 -5 98 -13 114 -18 42 -13 175
-81 274 -141 46 -28 89 -51 95 -51 22 0 103 -96 120 -141 9 -26 48 -100 87
-164 142 -238 189 -356 248 -625 21 -99 36 -203 46 -330 7 -90 -25 -367 -49
-422 -9 -21 -16 -48 -16 -62 0 -51 -128 -286 -156 -286 -3 0 -26 -18 -52 -39
-72 -60 -142 -91 -204 -91 -95 0 -269 100 -338 193 -39 53 -40 96 -2 137 27
31 27 31 64 16 42 -18 108 -21 108 -6 0 5 13 7 31 3 l30 -6 -3 59 -3 59 -60
22 c-129 47 -249 22 -309 -64 -25 -36 -30 -54 -34 -120 -2 -43 1 -97 7 -121
25 -92 151 -200 280 -238 39 -12 107 -18 228 -22 l172 -4 66 31 c37 17 78 31
92 31 13 0 59 -22 102 -50 106 -68 344 -181 472 -224 l107 -36 219 0 c190 0
228 3 293 21 147 41 304 147 381 259 48 69 96 182 115 269 26 125 10 428 -30
537 -46 131 -157 246 -316 330 -37 19 -70 44 -73 54 -2 10 15 51 40 94 103
179 147 395 109 546 -40 162 -111 299 -229 446 -75 93 -114 122 -291 214 -135
71 -211 97 -341 115 -106 16 -330 18 -380 5z m350 -105 c71 -13 114 -28 202
-72 62 -31 138 -77 169 -102 31 -25 66 -51 77 -58 11 -6 32 -34 47 -62 16 -28
44 -72 63 -98 42 -58 133 -237 158 -313 13 -39 19 -85 19 -160 0 -98 -3 -110
-35 -184 -18 -43 -43 -85 -54 -93 -12 -8 -21 -20 -21 -28 0 -25 -60 -83 -97
-96 -24 -8 -136 -12 -337 -14 -369 -2 -386 -7 -386 -100 0 -52 40 -90 111
-104 180 -36 415 -32 529 11 30 11 78 22 107 25 47 4 61 0 144 -44 51 -26 102
-57 113 -69 87 -87 155 -211 177 -324 7 -36 12 -123 12 -193 l0 -128 -56 -112
c-52 -106 -132 -226 -150 -227 -5 0 -28 -14 -53 -31 -24 -16 -75 -45 -112 -62
-67 -32 -68 -32 -217 -30 -170 1 -243 16 -392 79 -99 43 -160 81 -248 154 -33
27 -79 62 -102 77 -23 15 -45 35 -48 44 -3 9 13 63 35 120 82 211 125 550 100
789 -27 260 -63 400 -165 646 -79 189 -102 234 -158 311 -104 140 -116 177
-78 240 50 80 257 197 376 212 110 13 173 12 270 -4z"/>
</g>
</svg>
